<svg width="14" height="15" viewBox="0 0 14 15" fill="none" xmlns="http://www.w3.org/2000/svg">
<path fill-rule="evenodd" clip-rule="evenodd" d="M2.46967 2.96967C2.76256 2.67678 3.23744 2.67678 3.53033 2.96967L7 6.43934L10.4697 2.96967C10.7626 2.67678 11.2374 2.67678 11.5303 2.96967C11.8232 3.26256 11.8232 3.73744 11.5303 4.03033L8.06066 7.5L11.5303 10.9697C11.8232 11.2626 11.8232 11.7374 11.5303 12.0303C11.2374 12.3232 10.7626 12.3232 10.4697 12.0303L7 8.56066L3.53033 12.0303C3.23744 12.3232 2.76256 12.3232 2.46967 12.0303C2.17678 11.7374 2.17678 11.2626 2.46967 10.9697L5.93934 7.5L2.46967 4.03033C2.17678 3.73744 2.17678 3.26256 2.46967 2.96967Z" fill="white" fill-opacity="0.65"/>
</svg>
